<svg width="71" height="25" viewBox="0 0 71 25" fill="none" xmlns="http://www.w3.org/2000/svg">
          <path d="M32.096 20.192C31.3707 20.192 30.7307 20.0533 30.176 19.776C29.632 19.4987 29.2053 19.0933 28.896 18.56C28.5973 18.016 28.448 17.36 28.448 16.592H30.608C30.608 16.9333 30.6613 17.232 30.768 17.488C30.8747 17.7333 31.0293 17.9253 31.232 18.064C31.4453 18.192 31.7173 18.256 32.048 18.256C32.3573 18.256 32.608 18.1973 32.8 18.08C33.0027 17.952 33.152 17.776 33.248 17.552C33.344 17.3173 33.392 17.04 33.392 16.72V8.8H35.552V16.72C35.552 17.84 35.2373 18.6987 34.608 19.296C33.9893 19.8933 33.152 20.192 32.096 20.192ZM37.7286 20V8.8H39.8886V13.232L43.9526 8.8H46.6086L42.4806 13.232L46.7366 20H44.0966L40.9446 14.912L39.8886 16.032V20H37.7286ZM51.2546 20.192C50.4866 20.192 49.7933 20.016 49.1746 19.664C48.5666 19.3013 48.0813 18.8053 47.7186 18.176C47.3666 17.536 47.1906 16.8053 47.1906 15.984C47.1906 15.152 47.3666 14.4213 47.7186 13.792C48.0813 13.1627 48.572 12.672 49.1906 12.32C49.8093 11.9573 50.5026 11.776 51.2706 11.776C52.0493 11.776 52.7426 11.9573 53.3506 12.32C53.9693 12.672 54.4546 13.1627 54.8066 13.792C55.1693 14.4213 55.3506 15.152 55.3506 15.984C55.3506 16.8053 55.1693 17.536 54.8066 18.176C54.4546 18.8053 53.9693 19.3013 53.3506 19.664C52.732 20.016 52.0333 20.192 51.2546 20.192ZM51.2546 18.32C51.6066 18.32 51.9213 18.2347 52.1986 18.064C52.4866 17.8933 52.716 17.632 52.8866 17.28C53.0573 16.928 53.1426 16.496 53.1426 15.984C53.1426 15.4613 53.0573 15.0293 52.8866 14.688C52.7266 14.336 52.5026 14.0747 52.2146 13.904C51.9373 13.7333 51.6226 13.648 51.2706 13.648C50.9293 13.648 50.6146 13.7333 50.3266 13.904C50.0386 14.0747 49.8093 14.336 49.6386 14.688C49.468 15.0293 49.3826 15.4613 49.3826 15.984C49.3826 16.496 49.468 16.928 49.6386 17.28C49.8093 17.632 50.0333 17.8933 50.3106 18.064C50.5986 18.2347 50.9133 18.32 51.2546 18.32ZM57.2603 20V11.968H59.4203V20H57.2603ZM58.3483 10.848C57.9536 10.848 57.6336 10.736 57.3883 10.512C57.1429 10.2773 57.0203 9.984 57.0203 9.632C57.0203 9.28 57.1429 8.992 57.3883 8.768C57.6336 8.53333 57.9536 8.416 58.3483 8.416C58.7429 8.416 59.0629 8.53333 59.3083 8.768C59.5643 8.992 59.6923 9.28 59.6923 9.632C59.6923 9.984 59.5643 10.2773 59.3083 10.512C59.0629 10.736 58.7429 10.848 58.3483 10.848ZM61.5872 20V11.968H63.4913L63.6513 13.28C63.8966 12.8213 64.2433 12.4587 64.6913 12.192C65.1499 11.9147 65.6939 11.776 66.3233 11.776C66.9953 11.776 67.5606 11.9147 68.0193 12.192C68.4779 12.4693 68.8246 12.8747 69.0593 13.408C69.3046 13.9413 69.4273 14.6027 69.4273 15.392V20H67.2833V15.584C67.2833 14.944 67.1446 14.4533 66.8673 14.112C66.6006 13.7707 66.1846 13.6 65.6193 13.6C65.2566 13.6 64.9313 13.6853 64.6432 13.856C64.3659 14.0267 64.1473 14.272 63.9873 14.592C63.8273 14.9013 63.7473 15.2853 63.7473 15.744V20H61.5872Z" fill="#13ADB7" />
          <path d="M9.99998 19.7917H11.6666V6.25L16.995 9.10417C17.145 9.18454 17.2728 9.31821 17.3626 9.48857C17.4523 9.65893 17.5001 9.8585 17.5 10.0625V19.7917H19.1666V21.875H0.833313V19.7917H2.49998V5.88542C2.49996 5.68387 2.54671 5.48665 2.63457 5.31766C2.72244 5.14866 2.84763 5.01516 2.99498 4.93333L9.41415 1.36667C9.47765 1.3314 9.5472 1.31655 9.61648 1.32346C9.68575 1.33037 9.75253 1.35883 9.81076 1.40625C9.86898 1.45367 9.91679 1.51853 9.94984 1.59494C9.98289 1.67136 10.0001 1.75689 9.99998 1.84375V19.7917Z" fill="#13ADB7" />
</svg>
